HIERARCHY
ROOT root
{
	OFFSET	0	13.1	24.9
	CHANNELS 6  Xposition Yposition Zposition Xrotation Yrotation Zrotation
	JOINT spine_1
	{
		OFFSET	0	9.99999	0
		CHANNELS 3  Xrotation Yrotation Zrotation
		JOINT spine_2
		{
			OFFSET	0	112	-10
			CHANNELS 3  Xrotation Yrotation Zrotation
			JOINT spine_3
			{
				OFFSET	0	206.5	19.3
				CHANNELS 3  Xrotation Yrotation Zrotation
				JOINT spine_4
				{
					OFFSET	0	110.4	14.6
					CHANNELS 3  Xrotation Yrotation Zrotation
					JOINT neck_1
					{
						OFFSET	0	71.8	-50.3
						CHANNELS 3  Xrotation Yrotation Zrotation
						JOINT neck_2
						{
							OFFSET	0	86.2	-25.8
							CHANNELS 3  Xrotation Yrotation Zrotation
							JOINT head_ee
							{
								OFFSET	0	179.8	-8.7
								CHANNELS 3  Xrotation Yrotation Zrotation
								End Site
								{
									OFFSET	1	0	0
								}
							}
						}
					}
					JOINT left_clavicle
					{
						OFFSET	-43.2	22.4	-70.8
						CHANNELS 3  Xrotation Yrotation Zrotation
						JOINT left_shoulder
						{
							OFFSET	-93.9	-5.79999	48.7
							CHANNELS 3  Xrotation Yrotation Zrotation
							JOINT left_elbow
							{
								OFFSET	-291.4	-30.8	15.2
								CHANNELS 3  Xrotation Yrotation Zrotation
								JOINT left_lowarm_twist
								{
									OFFSET	-110.7	-3.89999	13.6
									CHANNELS 3  Xrotation Yrotation Zrotation
									JOINT left_hand
									{
										OFFSET	-110.7	-3.89999	13.6
										CHANNELS 3  Xrotation Yrotation Zrotation
										JOINT left_ee
										{
											OFFSET	-80.8	-5.10001	12.1
											CHANNELS 3  Xrotation Yrotation Zrotation
											End Site
											{
												OFFSET	1	0	0
											}
										}
									}
								}
							}
						}
					}
					JOINT right_clavicle
					{
						OFFSET	43.2	22.4	-70.8
						CHANNELS 3  Xrotation Yrotation Zrotation
						JOINT right_shoulder
						{
							OFFSET	93.9	-5.79999	48.7
							CHANNELS 3  Xrotation Yrotation Zrotation
							JOINT right_elbow
							{
								OFFSET	291.4	-30.8	15.2
								CHANNELS 3  Xrotation Yrotation Zrotation
								JOINT right_lowarm_twist
								{
									OFFSET	110.7	-3.89999	13.6
									CHANNELS 3  Xrotation Yrotation Zrotation
									JOINT right_hand
									{
										OFFSET	110.7	-3.89999	13.6
										CHANNELS 3  Xrotation Yrotation Zrotation
										JOINT right_ee
										{
											OFFSET	80.8	-5.10001	12.1
											CHANNELS 3  Xrotation Yrotation Zrotation
											End Site
											{
												OFFSET	1	0	0
											}
										}
									}
								}
							}
						}
					}
				}
			}
		}
	}
	JOINT left_hip
	{
		OFFSET	-82.8	-127.5	0.300001
		CHANNELS 3  Xrotation Yrotation Zrotation
		JOINT left_knee
		{
			OFFSET	-28.2	-396.7	2.2
			CHANNELS 3  Xrotation Yrotation Zrotation
			JOINT left_ankle
			{
				OFFSET	-11.7	-411.3	35.4
				CHANNELS 3  Xrotation Yrotation Zrotation
				JOINT left_toes
				{
					OFFSET	0	-60	-88.6
					CHANNELS 3  Xrotation Yrotation Zrotation
					JOINT left_foot_ee
					{
						OFFSET	-22.5	-16.5	-42.2
						CHANNELS 3  Xrotation Yrotation Zrotation
						End Site
						{
							OFFSET	1	0	0
						}
					}
				}
			}
		}
	}
	JOINT right_hip
	{
		OFFSET	82.8	-127.5	0.300001
		CHANNELS 3  Xrotation Yrotation Zrotation
		JOINT right_knee
		{
			OFFSET	28.2	-396.7	2.2
			CHANNELS 3  Xrotation Yrotation Zrotation
			JOINT right_ankle
			{
				OFFSET	11.7	-411.3	35.4
				CHANNELS 3  Xrotation Yrotation Zrotation
				JOINT right_toes
				{
					OFFSET	0	-60	-88.6
					CHANNELS 3  Xrotation Yrotation Zrotation
					JOINT right_foot_ee
					{
						OFFSET	22.5	-16.5	-42.2
						CHANNELS 3  Xrotation Yrotation Zrotation
						End Site
						{
							OFFSET	1	0	0
						}
					}
				}
			}
		}
	}
}
MOTION
Frames: 8
Frame Time: 0.02
1041.4 574.639 -1682.42 -45.1503409936 51.171298321 54.4186138966 12.6937 -0.848502 -4.93904 12.7071 -0.532899 -4.98287 12.7126 -0.585451 -4.97698 12.6807 -1.36321 -4.82268 -22.9186 -17.9157 6.43549 -25.8278 -37.3535 -3.69205 -0.0 0.0 -0.0 10.6589 1.80085 20.9055 -15.7797 46.9798 53.206 0.1914 -5.41638 0.0090536 -10.0381 -0.459847 1.19652 3.90068 29.4065 34.8661 -0.0 0.0 -0.0 3.11207 -22.0763 -6.9598 89.1231 -51.8917 -1.6658 0.173464 4.91142 -0.00743922 85.5199 4.48889 8.88982 -7.57093 -30.1711 30.0762 0.0 0.0 0.0 51.9569 -42.9605 -2.67201 -5.02574 0.174054 0.751416 27.5667 26.7974 -3.86347 16.75 -0.0 -0.0 -0.0 0.0 -0.0 17.3885 -12.4902 -23.6689 -10.6391 -0.289758 -1.6047 40.9717 -1.70064 4.94822 40.1361 -0.0 -0.0 0.0 0.0 0.0 
1041.4 574.639 -1682.42 -45.7838612394 51.6684991066 55.2290016568 12.6937 -0.848502 -4.93904 12.7071 -0.532899 -4.98287 12.7126 -0.585451 -4.97698 12.6807 -1.36321 -4.82268 -22.9186 -17.9157 6.43549 -25.8278 -37.3535 -3.69205 -0.0 0.0 -0.0 10.6589 1.80085 20.9055 -15.7797 46.9798 53.206 0.1914 -5.41638 0.0090536 -10.0381 -0.459847 1.19652 3.90068 29.4065 34.8661 -0.0 0.0 -0.0 3.11207 -22.0763 -6.9598 89.1231 -51.8917 -1.6658 0.173464 4.91142 -0.00743922 85.5199 4.48889 8.88982 -7.57093 -30.1711 30.0762 0.0 0.0 0.0 51.9569 -42.9605 -2.67201 -5.02574 0.174054 0.751416 27.5667 26.7974 -3.86347 16.75 -0.0 -0.0 -0.0 0.0 -0.0 17.3885 -12.4902 -23.6689 -10.6391 -0.289758 -1.6047 40.9717 -1.70064 4.94822 40.1361 -0.0 -0.0 0.0 0.0 0.0 
1041.4 574.639 -1682.42 -46.6986985799 52.3526769135 56.3897436055 12.6937 -0.848502 -4.93904 12.7071 -0.532899 -4.98287 12.7126 -0.585451 -4.97698 12.6807 -1.36321 -4.82268 -22.9186 -17.9157 6.43549 -25.8278 -37.3535 -3.69205 -0.0 0.0 -0.0 10.6589 1.80085 20.9055 -15.7797 46.9798 53.206 0.1914 -5.41638 0.0090536 -10.0381 -0.459847 1.19652 3.90068 29.4065 34.8661 -0.0 0.0 -0.0 3.11207 -22.0763 -6.9598 89.1231 -51.8917 -1.6658 0.173464 4.91142 -0.00743922 85.5199 4.48889 8.88982 -7.57093 -30.1711 30.0762 0.0 0.0 0.0 51.9569 -42.9605 -2.67201 -5.02574 0.174054 0.751416 27.5667 26.7974 -3.86347 16.75 -0.0 -0.0 -0.0 0.0 -0.0 17.3885 -12.4902 -23.6689 -10.6391 -0.289758 -1.6047 40.9717 -1.70064 4.94822 40.1361 -0.0 -0.0 0.0 0.0 0.0 
1041.4 574.639 -1682.42 -47.171012512 52.6911423321 56.9849031196 12.6937 -0.848502 -4.93904 12.7071 -0.532899 -4.98287 12.7126 -0.585451 -4.97698 12.6807 -1.36321 -4.82268 -22.9186 -17.9157 6.43549 -25.8278 -37.3535 -3.69205 -0.0 0.0 -0.0 10.6589 1.80085 20.9055 -15.7797 46.9798 53.206 0.1914 -5.41638 0.0090536 -10.0381 -0.459847 1.19652 3.90068 29.4065 34.8661 -0.0 0.0 -0.0 3.11207 -22.0763 -6.9598 89.1231 -51.8917 -1.6658 0.173464 4.91142 -0.00743922 85.5199 4.48889 8.88982 -7.57093 -30.1711 30.0762 0.0 0.0 0.0 51.9569 -42.9605 -2.67201 -5.02574 0.174054 0.751416 27.5667 26.7974 -3.86347 16.75 -0.0 -0.0 -0.0 0.0 -0.0 17.3885 -12.4902 -23.6689 -10.6391 -0.289758 -1.6047 40.9717 -1.70064 4.94822 40.1361 -0.0 -0.0 0.0 0.0 0.0 
1041.4 574.639 -1682.42 -48.017290847 53.2739516547 58.0447770772 12.6937 -0.848502 -4.93904 12.7071 -0.532899 -4.98287 12.7126 -0.585451 -4.97698 12.6807 -1.36321 -4.82268 -22.9186 -17.9157 6.43549 -25.8278 -37.3535 -3.69205 -0.0 0.0 -0.0 10.6589 1.80085 20.9055 -15.7797 46.9798 53.206 0.1914 -5.41638 0.0090536 -10.0381 -0.459847 1.19652 3.90068 29.4065 34.8661 -0.0 0.0 -0.0 3.11207 -22.0763 -6.9598 89.1231 -51.8917 -1.6658 0.173464 4.91142 -0.00743922 85.5199 4.48889 8.88982 -7.57093 -30.1711 30.0762 0.0 0.0 0.0 51.9569 -42.9605 -2.67201 -5.02574 0.174054 0.751416 27.5667 26.7974 -3.86347 16.75 -0.0 -0.0 -0.0 0.0 -0.0 17.3885 -12.4902 -23.6689 -10.6391 -0.289758 -1.6047 40.9717 -1.70064 4.94822 40.1361 -0.0 -0.0 0.0 0.0 0.0 
1041.4 574.639 -1682.42 -48.6756684687 53.7074490896 58.8638881202 12.6937 -0.848502 -4.93904 12.7071 -0.532899 -4.98287 12.7126 -0.585451 -4.97698 12.6807 -1.36321 -4.82268 -22.9186 -17.9157 6.43549 -25.8278 -37.3535 -3.69205 -0.0 0.0 -0.0 10.6589 1.80085 20.9055 -15.7797 46.9798 53.206 0.1914 -5.41638 0.0090536 -10.0381 -0.459847 1.19652 3.90068 29.4065 34.8661 -0.0 0.0 -0.0 3.11207 -22.0763 -6.9598 89.1231 -51.8917 -1.6658 0.173464 4.91142 -0.00743922 85.5199 4.48889 8.88982 -7.57093 -30.1711 30.0762 0.0 0.0 0.0 51.9569 -42.9605 -2.67201 -5.02574 0.174054 0.751416 27.5667 26.7974 -3.86347 16.75 -0.0 -0.0 -0.0 0.0 -0.0 17.3885 -12.4902 -23.6689 -10.6391 -0.289758 -1.6047 40.9717 -1.70064 4.94822 40.1361 -0.0 -0.0 0.0 0.0 0.0 
1041.4 574.639 -1682.42 -49.725929796 54.3652190875 60.1614444233 12.6937 -0.848502 -4.93904 12.7071 -0.532899 -4.98287 12.7126 -0.585451 -4.97698 12.6807 -1.36321 -4.82268 -22.9186 -17.9157 6.43549 -25.8278 -37.3535 -3.69205 -0.0 0.0 -0.0 10.6589 1.80085 20.9055 -15.7797 46.9798 53.206 0.1914 -5.41638 0.0090536 -10.0381 -0.459847 1.19652 3.90068 29.4065 34.8661 -0.0 0.0 -0.0 3.11207 -22.0763 -6.9598 89.1231 -51.8917 -1.6658 0.173464 4.91142 -0.00743922 85.5199 4.48889 8.88982 -7.57093 -30.1711 30.0762 0.0 0.0 0.0 51.9569 -42.9605 -2.67201 -5.02574 0.174054 0.751416 27.5667 26.7974 -3.86347 16.75 -0.0 -0.0 -0.0 0.0 -0.0 17.3885 -12.4902 -23.6689 -10.6391 -0.289758 -1.6047 40.9717 -1.70064 4.94822 40.1361 -0.0 -0.0 0.0 0.0 0.0 
1028.82118668 577.979 -1688.83601937 -51.0895938076 55.1751339335 61.9608569597 12.5425 -0.83825 -5.14759 12.5571 -0.509449 -5.19034 12.5596 -0.550305 -5.18618 12.5246 -1.36142 -5.03485 -18.7416 -16.7047 5.37491 -20.5277 -34.9245 -2.35255 -0.0 0.0 -0.0 10.5251 1.70594 20.6369 -11.3336 52.4289 50.8495 0.192658 -5.45176 0.00917268 -9.60649 -0.435795 1.14682 3.49669 25.1141 31.5149 -0.0 0.0 -0.0 2.735 -23.7161 -6.47381 90.0364 -52.8421 -2.32678 0.16924 4.7924 -0.00708204 85.3772 4.47175 8.88338 -7.27492 -29.9212 28.4535 0.0 0.0 0.0 51.337 -43.0824 -2.84012 -6.87555 0.221418 1.03133 30.79 18.4621 -4.06638 21.0946 -0.0 -0.0 -0.0 0.0 -0.0 14.77 -14.2973 -24.7204 -10.9084 -0.293202 -1.64588 40.2294 -2.00816 4.88391 35.2802 -0.0 -0.0 0.0 0.0 0.0 
